<svg width="128" height="128" viewBox="0 0 48 48" fill="none" xmlns="http://www.w3.org/2000/svg">
  <circle cx="24" cy="24" r="24" fill="#017D63"/>
  <g transform="translate(8, 8) scale(1.3)">
    <path d="M7.3642 5.71441C4.2261 10.1131 7.28948 11.5151 9.21343 11.6663C3.38555 13.3668 -3.45102 21.5294 1.98461 24.5337C7.42024 27.538 19.076 19.4321 18.0674 15.9176C17.8017 14.9922 15.7698 17.5048 12.6317 19.4321C9.91447 21.1009 3.70267 22.3178 6.63572 17.5048C9.1574 13.3668 15.4896 11.8363 16.2181 11.6663C17.2828 11.4177 18.5156 8.64728 16.7785 9.17217C12.4636 10.4759 10.6144 9.39891 11.567 7.01816C12.5196 4.6374 17.563 2.31334 19.4122 2.37002C21.2615 2.42671 19.8605 4.01387 18.7398 5.0342C21.4856 5.54436 23.8952 3.5604 23.4469 1.12296C22.9986 -1.31447 11.2868 0.216008 7.3642 5.71441Z" fill="white"/>
  </g>
</svg>
